<?xml version="1.0" encoding="UTF-8"?>
<svg version="1.1" xmlns="http://www.w3.org/2000/svg" width="512" height="512">
<path d="M0 0 C1.28483276 -0.01253311 2.56966553 -0.02506622 3.89343262 -0.03797913 C5.28768937 -0.02571042 6.68193641 -0.01229034 8.07617188 0.00219727 C9.51436543 0.00136802 10.95255889 -0.00109346 12.39074707 -0.00511169 C15.40027503 -0.00796579 18.40905714 0.00669168 21.41845703 0.03417969 C25.26888876 0.06826331 29.11798741 0.06224142 32.96848297 0.04351711 C35.9369002 0.03292948 38.90500923 0.04190063 41.87339783 0.05690193 C43.2927102 0.06207137 44.71205493 0.06161698 46.13136292 0.05535698 C48.1175657 0.04988459 50.10378428 0.07317688 52.08984375 0.09765625 C53.21837769 0.10385483 54.34691162 0.11005341 55.50964355 0.11643982 C59.20661049 0.74329985 60.87762316 2.04706835 63.54492188 4.63110352 C64.93486267 7.41098511 64.72980392 9.54973612 64.54492188 12.63110352 C63.33785308 15.97375556 62.62435338 16.57814918 59.54492188 18.63110352 C57.09301758 18.94995117 57.09301758 18.94995117 54.22070312 19.04516602 C53.19267578 19.08383789 52.16464844 19.12250977 51.10546875 19.16235352 C50.03361328 19.19329102 48.96175781 19.22422852 47.85742188 19.25610352 C46.77396484 19.29477539 45.69050781 19.33344727 44.57421875 19.37329102 C41.8979572 19.4676086 39.22170345 19.55320357 36.54492188 19.63110352 C36.87814453 20.25678223 37.21136719 20.88246094 37.5546875 21.52709961 C39.0556928 24.35119385 40.55037669 27.1785856 42.04492188 30.00610352 C42.56957031 30.99094727 43.09421875 31.97579102 43.63476562 32.99047852 C44.13105469 33.93149414 44.62734375 34.87250977 45.13867188 35.84204102 C45.59951172 36.71135254 46.06035156 37.58066406 46.53515625 38.47631836 C47.54492188 40.63110352 47.54492188 40.63110352 47.54492188 42.63110352 C88.79492188 42.30110352 130.04492188 41.97110352 172.54492188 41.63110352 C165.11992188 27.27610352 165.11992188 27.27610352 157.54492188 12.63110352 C158.54492187 4.63110352 158.54492187 4.63110352 160.69548035 2.16246033 C164.1027877 0.33129331 166.27650001 0.12994978 170.13598633 0.12939453 C171.45117752 0.12001358 172.76636871 0.11063263 174.12141418 0.10096741 C175.55035044 0.11144931 176.97928043 0.12281881 178.40820312 0.13500977 C179.88404919 0.13485465 181.35989565 0.13336353 182.83573914 0.13059998 C185.92672776 0.12921716 189.01725175 0.14174901 192.1081543 0.16455078 C196.05227126 0.19286075 199.99561227 0.1902171 203.93978596 0.17746067 C206.98805759 0.17047174 210.03615297 0.17833042 213.08440208 0.1907177 C214.53752146 0.19520636 215.99065993 0.1955918 217.4437809 0.1916523 C228.36523042 0.17590903 236.52502665 0.91825025 244.78320312 8.68969727 C250.26186676 14.72716029 251.81458076 21.5750444 251.54492188 29.63110352 C250.46681414 36.64917022 247.66660802 42.663951 242.54492188 47.63110352 C235.47007439 52.56875749 229.59097137 53.8113488 221.04492188 53.81860352 C220.28566406 53.83084961 219.52640625 53.8430957 218.74414062 53.85571289 C211.58582862 53.87451756 211.58582862 53.87451756 208.54492188 51.63110352 C206.09628937 47.95815476 205.7130875 44.89841387 206.54492188 40.63110352 C209.07945844 37.41155707 210.65789492 35.92677917 214.54492188 34.63110352 C217.83466708 34.43809369 221.12244147 34.31398398 224.41601562 34.20532227 C228.10276111 33.52872852 229.3142158 32.59460192 231.54492188 29.63110352 C232.01187968 26.36239891 232.19967465 24.53528592 230.23242188 21.81860352 C227.3285078 19.77510843 224.69685866 19.49639254 221.25708008 19.42578125 C220.39641434 19.40583603 219.5357486 19.38589081 218.64900208 19.36534119 C217.72391342 19.34862869 216.79882477 19.3319162 215.84570312 19.31469727 C214.89551804 19.29391617 213.94533295 19.27313507 212.96635437 19.25172424 C209.93011731 19.18632299 206.89379356 19.12738748 203.85742188 19.06860352 C201.79947019 19.02540934 199.74152728 18.98179476 197.68359375 18.93774414 C192.63745872 18.83065121 187.59123645 18.72935706 182.54492188 18.63110352 C182.88523437 19.28667236 183.22554688 19.94224121 183.57617188 20.61767578 C193.25965479 39.27479853 202.91030613 57.94870429 212.54492188 76.63110352 C213.26067383 76.43339355 213.97642578 76.23568359 214.71386719 76.03198242 C219.89071514 74.60960912 225.06303632 73.21448317 230.29492188 72.00610352 C231.32101562 71.76633789 232.34710938 71.52657227 233.40429688 71.27954102 C261.84673395 65.40709754 291.38094417 71.92748655 315.54492188 87.63110352 C319.03140392 90.13918533 322.30161316 92.81808451 325.54492188 95.63110352 C326.35316406 96.2949707 327.16140625 96.95883789 327.99414062 97.64282227 C347.79255178 114.45748542 360.17888973 138.99684411 363.54492188 164.63110352 C365.47946926 193.35103604 361.2577921 220.26813966 343.54492188 243.63110352 C342.89652344 244.49993164 342.248125 245.36875977 341.58007812 246.26391602 C324.3232422 268.61237284 299.18521902 283.77835161 271.16601562 288.12329102 C241.38606657 291.87812531 213.00209156 285.03961835 188.54492188 267.50610352 C166.58040095 250.38712419 150.18538208 225.63168657 145.88867188 197.74438477 C144.3864842 184.13934416 144.34471731 171.15980321 146.54492188 157.63110352 C146.70605469 156.62305664 146.8671875 155.61500977 147.03320312 154.57641602 C150.3575617 138.610449 158.11770687 123.09242275 168.54492188 110.63110352 C168.98594238 110.10194336 169.42696289 109.5727832 169.88134766 109.02758789 C177.17458561 100.41762481 185.50746152 93.36201946 194.54492188 86.63110352 C193.05321922 81.65876132 190.94034771 77.21264613 188.54492188 72.63110352 C183.08665577 79.77501062 178.22607846 87.19302632 173.46411133 94.80957031 C169.37621662 101.34019274 165.20013277 107.80862697 160.98242188 114.25610352 C160.34522217 115.23047363 159.70802246 116.20484375 159.05151367 117.20874023 C157.79991321 119.12238543 156.54820699 121.03596147 155.29638672 122.94946289 C152.7849827 126.79463458 150.28786039 130.64894225 147.79492188 134.50610352 C147.35510986 135.18648682 146.91529785 135.86687012 146.4621582 136.56787109 C145.59019915 137.91715047 144.71837139 139.26651469 143.84667969 140.6159668 C142.07487716 143.35873837 140.30218194 146.10093101 138.52856445 148.8425293 C137.62652119 150.23749504 136.72530949 151.63299887 135.82495117 153.02905273 C133.27468226 156.97876524 130.7012813 160.91165879 128.10351562 164.83032227 C127.5219873 165.71228271 126.94045898 166.59424316 126.34130859 167.50292969 C125.21950242 169.20333006 124.0925542 170.90035395 122.95947266 172.59326172 C116.25735849 182.78009931 112.83125081 193.62004723 109.29492188 205.19360352 C108.83188775 206.69441124 108.36835002 208.19506369 107.90429688 209.69555664 C106.7786925 213.33897514 105.65991905 216.9844256 104.54492188 220.63110352 C105.30853027 220.61297607 106.07213867 220.59484863 106.85888672 220.57617188 C107.8561377 220.56207275 108.85338867 220.54797363 109.88085938 220.53344727 C111.36658447 220.5062561 111.36658447 220.5062561 112.88232422 220.47851562 C115.54492188 220.63110352 115.54492188 220.63110352 118.16992188 222.19360352 C120.0103796 225.45623312 120.47921212 227.88564769 120.54492188 231.63110352 C118.95653253 235.20497954 117.8285783 236.44199923 114.54492188 238.63110352 C111.68994016 238.82732219 108.93492021 238.91111862 106.08007812 238.89672852 C105.25035995 238.89864197 104.42064178 238.90055542 103.56578064 238.90252686 C101.81151018 238.9038874 100.05722961 238.90020004 98.30297852 238.8918457 C95.62102553 238.88115773 92.93974444 238.89173826 90.2578125 238.90454102 C88.5527329 238.90321913 86.84765372 238.90065614 85.14257812 238.89672852 C84.34143082 238.90077698 83.54028351 238.90482544 82.71485901 238.90899658 C75.55201474 238.84885184 75.55201474 238.84885184 72.54492188 236.63110352 C70.08071358 232.93479107 69.75922234 229.91901691 70.54492188 225.63110352 C72.48242188 222.69360352 72.48242188 222.69360352 75.54492188 220.63110352 C78.51492187 220.30110352 81.48492187 219.97110352 84.54492188 219.63110352 C87.51492187 209.73110352 90.48492187 199.83110352 93.54492188 189.63110352 C85.62492188 189.30110352 77.70492187 188.97110352 69.54492188 188.63110352 C69.46242187 190.30172852 69.37992188 191.97235352 69.29492188 193.69360352 C66.78034104 222.67924473 50.6487932 246.47880522 29.42382812 265.31860352 C24.44799483 269.31547368 19.10832613 272.52391875 13.54492188 275.63110352 C12.11212891 276.44901367 12.11212891 276.44901367 10.65039062 277.28344727 C2.33915132 281.75173324 -6.35068986 284.33493505 -15.45507812 286.63110352 C-16.41542969 286.87989258 -17.37578125 287.12868164 -18.36523438 287.38500977 C-46.83533549 293.38092208 -76.2613285 286.03145865 -100.54589844 270.90356445 C-105.93591444 267.31113946 -110.70402806 263.01365108 -115.45507812 258.63110352 C-116.54175781 257.68364258 -116.54175781 257.68364258 -117.65039062 256.71704102 C-135.38777986 240.41587763 -147.0809282 214.19172685 -148.67602539 190.32519531 C-149.67334076 160.14952385 -143.89381182 131.84450278 -123.45507812 108.63110352 C-122.79121094 107.82415039 -122.12734375 107.01719727 -121.44335938 106.18579102 C-103.83748429 85.42322483 -77.47935394 72.28983436 -50.45507812 69.63110352 C-28.7947428 68.109491 -7.865091 71.706356 11.54492188 81.63110352 C14.50806114 77.21013188 17.46250578 72.78375015 20.40039062 68.34594727 C22.21993887 65.60105687 24.06033515 62.8798926 25.97070312 60.19750977 C26.61394531 59.2680957 27.2571875 58.33868164 27.91992188 57.38110352 C28.48453125 56.59219727 29.04914063 55.80329102 29.63085938 54.99047852 C31.71572235 49.60903733 26.64660726 41.60872012 24.45678711 36.55151367 C20.05994842 25.83332449 20.05994842 25.83332449 11.91015625 18.36108398 C7.17773586 17.43333724 2.88459953 17.7784581 -1.86523438 18.38891602 C-5.74897726 18.86368218 -6.13803898 18.85692861 -9.53710938 16.43579102 C-12.14051503 12.62877419 -12.14051503 12.62877419 -12.08007812 9.63110352 C-12.09296875 8.99172852 -12.10585937 8.35235352 -12.11914062 7.69360352 C-10.19781766 1.72620041 -5.80452357 0.00494674 0 0 Z M57.54492188 61.63110352 C60.18492187 66.91110352 62.82492188 72.19110352 65.54492188 77.63110352 C68.40576172 83.36865234 68.40576172 83.36865234 69.70150757 85.96992493 C71.60794463 89.79669331 73.5169124 93.62219809 75.42578125 97.44775391 C76.41901664 99.43925578 77.41153396 101.43111594 78.40332031 103.42333984 C84.27226441 115.21068543 90.23727798 126.93428261 96.40185547 138.56982422 C98.89704611 143.28367768 101.3076846 148.0368359 103.66992188 152.81860352 C104.0540625 153.59139648 104.43820313 154.36418945 104.83398438 155.16040039 C105.73961547 156.98298298 106.64261441 158.80687321 107.54492188 160.63110352 C111.68155691 155.77236262 115.02700121 150.41753826 118.48242188 145.06860352 C119.47387207 143.54082275 119.47387207 143.54082275 120.48535156 141.98217773 C121.84789271 139.88227289 123.20938006 137.78168392 124.56982422 135.68041992 C126.93541697 132.02822542 129.308623 128.38102619 131.68237305 124.73413086 C136.18798995 117.81028353 140.68255047 110.87928732 145.16992188 103.94360352 C145.61553467 103.25492188 146.06114746 102.56624023 146.52026367 101.85668945 C148.79041631 98.34710704 151.05796059 94.83586791 153.32226562 91.32250977 C154.25052881 89.88362882 155.17891347 88.44482623 156.10742188 87.00610352 C156.55593506 86.31033203 157.00444824 85.61456055 157.46655273 84.89770508 C159.76520224 81.34241623 162.0893703 77.80752763 164.45898438 74.29907227 C165.15785767 73.26290771 165.15785767 73.26290771 165.87084961 72.20581055 C166.75936183 70.89271789 167.65192585 69.58235519 168.54907227 68.27514648 C170.81251259 65.22720765 170.81251259 65.22720765 171.54492188 61.63110352 C133.92492187 61.63110352 96.30492187 61.63110352 57.54492188 61.63110352 Z M40.54492188 71.63110352 C40.10623779 72.33456909 40.10623779 72.33456909 39.65869141 73.05224609 C38.32957637 75.18299517 36.9997566 77.31330354 35.66992188 79.44360352 C35.20972656 80.1815918 34.74953125 80.91958008 34.27539062 81.67993164 C33.60830078 82.74824219 33.60830078 82.74824219 32.92773438 83.83813477 C32.5192627 84.49273682 32.11079102 85.14733887 31.68994141 85.82177734 C30.66563878 87.44035021 29.60742603 89.03734728 28.54492188 90.63110352 C28.67750342 93.59610907 29.49242267 94.57759858 31.58398438 96.70922852 C32.43734375 97.42594727 33.29070312 98.14266602 34.16992188 98.88110352 C46.24085891 109.44744783 55.65591517 122.66984324 61.54492188 137.63110352 C61.88910156 138.41743164 62.23328125 139.20375977 62.58789062 140.01391602 C66.45327716 149.46263865 67.76226375 159.63548477 69.54492188 169.63110352 C76.80492187 169.63110352 84.06492188 169.63110352 91.54492188 169.63110352 C85.14113187 155.94431463 78.4548709 142.44319891 71.54492188 129.00610352 C70.53735944 127.04296786 69.52995595 125.07975061 68.52270508 123.11645508 C67.00034584 120.14981098 65.47751292 117.18341489 63.95320129 114.21777344 C61.15084553 108.76527428 58.35801034 103.30812757 55.5788269 97.84378052 C54.00035568 94.74106733 52.41746979 91.6406202 50.83374023 88.54058838 C50.10294151 87.10762508 49.37408061 85.67367176 48.6472168 84.2387085 C47.65363182 82.27817513 46.65296154 80.32142792 45.65039062 78.36547852 C45.09504639 77.27460938 44.53970215 76.18374023 43.9675293 75.05981445 C42.77615008 72.5193245 42.77615008 72.5193245 40.54492188 71.63110352 Z M-109.10302734 120.00854492 C-120.81450768 134.06316723 -129.68781128 153.18472986 -130.45507812 171.63110352 C-130.50664062 172.77708008 -130.55820313 173.92305664 -130.61132812 175.10375977 C-131.32334105 198.91630809 -123.48135326 221.76435509 -107.45507812 239.63110352 C-106.64296875 240.53731445 -105.83085938 241.44352539 -104.99414062 242.37719727 C-88.31250494 260.01276813 -65.57041421 269.42782055 -41.45507812 270.63110352 C-19.14064528 271.02604923 1.1879561 263.53823758 18.54492188 249.63110352 C19.31320313 249.02782227 20.08148438 248.42454102 20.87304688 247.80297852 C36.72687893 234.60992946 47.41921521 214.53336621 50.64648438 194.27172852 C50.90292725 192.67893066 50.90292725 192.67893066 51.16455078 191.05395508 C51.29007324 190.25441406 51.4155957 189.45487305 51.54492188 188.63110352 C50.37838577 188.6296785 49.21184967 188.62825348 48.00996399 188.62678528 C37.01836995 188.6101184 26.02714628 188.56735409 15.03574848 188.49901295 C9.38486227 188.46471691 3.73424717 188.43962886 -1.91674805 188.43554688 C-7.36996068 188.43126961 -12.82256147 188.40285379 -18.27558327 188.35767174 C-20.3563563 188.34467854 -22.43720248 188.34039548 -24.51801109 188.34494972 C-27.43219507 188.34984265 -30.3445818 188.32382101 -33.25854492 188.29052734 C-34.55003448 188.30346581 -34.55003448 188.30346581 -35.86761475 188.31666565 C-40.19807879 188.23368552 -41.94973923 188.01891194 -45.4934845 185.29936218 C-47.45507812 182.63110352 -47.45507812 182.63110352 -48.03710938 179.27954102 C-47.31523512 174.75450377 -45.68586342 171.99534125 -43.14257812 168.25610352 C-42.69325928 167.56766357 -42.24394043 166.87922363 -41.78100586 166.16992188 C-40.83022008 164.71538241 -39.87279706 163.26516241 -38.90917969 161.8190918 C-37.03537902 158.99958179 -35.20658316 156.15226131 -33.3762207 153.30444336 C-31.54186141 150.45451156 -29.69367411 147.61365166 -27.84619141 144.7722168 C-25.54385525 141.2286071 -23.24991901 137.67956965 -20.95507812 134.13110352 C-20.04494197 132.72484051 -19.13478568 131.31859054 -18.22460938 129.91235352 C-16.32446593 126.97595254 -14.42629879 124.03828491 -12.52929688 121.09985352 C-11.56706097 119.6102678 -10.60482145 118.12068443 -9.64257812 116.63110352 C-8.9545813 115.56460571 -8.9545813 115.56460571 -8.25268555 114.4765625 C-5.36178388 110.0037172 -2.41972602 105.5717657 0.61914062 101.19750977 C1.71452242 99.64739771 1.71452242 99.64739771 1.54492188 97.63110352 C-37.61287359 80.68466262 -80.25917229 87.56799878 -109.10302734 120.00854492 Z M221.54492188 94.63110352 C226.60771198 105.64850313 231.95835258 116.49479651 237.54492188 127.25610352 C238.17594492 128.4746089 238.80696705 129.69311477 239.43798828 130.91162109 C242.62630996 137.05925816 245.83823366 143.19351427 249.08578491 149.31008911 C250.67415678 152.30717425 252.25127542 155.31010369 253.8269043 158.31390381 C254.59144159 159.76435205 255.36122762 161.21204692 256.13647461 162.65679932 C257.22202128 164.68062903 258.28938748 166.71313777 259.35351562 168.74829102 C259.97025146 169.9095752 260.5869873 171.07085937 261.22241211 172.26733398 C262.69855916 176.021876 262.95338934 178.63166385 262.54492188 182.63110352 C260.0949174 186.0178744 258.68099741 187.41808935 254.54492188 188.19360352 C250.6960435 187.47193882 249.36543453 186.37127173 246.54492188 183.63110352 C244.74020049 180.72341366 243.30476718 177.66664016 241.85742188 174.56860352 C238.27884423 167.06914948 234.49915575 159.69989455 230.6136322 152.35623169 C225.45751683 142.59893511 220.44094552 132.77088984 215.41992188 122.94360352 C214.45387757 121.05487971 213.48773217 119.16620761 212.52148438 117.27758789 C210.19480436 112.72935156 207.86947006 108.18042974 205.54492188 103.63110352 C201.12865063 105.26069136 198.12099642 107.48112984 194.73242188 110.69360352 C194.20616211 111.18747559 193.67990234 111.68134766 193.13769531 112.19018555 C174.76139732 129.62799982 164.07038621 151.21349049 163.21484375 176.67333984 C162.82429378 199.12784053 169.84902699 218.94356038 183.54492188 236.63110352 C184.17011719 237.44063477 184.7953125 238.25016602 185.43945312 239.08422852 C200.1910945 256.84831034 222.83077016 267.65929204 245.54467773 270.23266602 C269.00725892 272.34037501 293.00383494 265.24195758 311.34179688 250.36157227 C313.8024508 248.17308158 316.18121066 245.92344157 318.54492188 243.63110352 C319.15722656 243.09227539 319.76953125 242.55344727 320.40039062 241.99829102 C335.86060366 227.9178224 344.58828058 204.51950184 345.74804688 184.04516602 C346.05038146 159.60645344 338.85113315 135.59363748 321.62792969 117.65527344 C320.28221082 116.29855096 318.91399598 114.96425439 317.54492188 113.63110352 C316.43503906 112.52508789 316.43503906 112.52508789 315.30273438 111.39672852 C296.83045458 93.93940915 273.30574314 87.72831184 248.50976562 88.26782227 C239.46049666 88.66656429 229.55177891 90.14241094 221.54492188 94.63110352 Z M17.54492188 108.63110352 C12.65941043 114.98646797 8.30351239 121.52164455 4.16992188 128.38110352 C-1.23523425 137.34891869 -6.9802103 146.04228391 -12.86181641 154.70239258 C-14.27150665 156.78038396 -15.67584896 158.86191952 -17.08007812 160.94360352 C-17.73762085 161.90496216 -17.73762085 161.90496216 -18.40844727 162.88574219 C-20.70276415 165.98267327 -20.70276415 165.98267327 -21.45507812 169.63110352 C2.30492187 169.63110352 26.06492188 169.63110352 50.54492188 169.63110352 C50.54492188 148.53282188 39.06229109 129.25216822 24.54492188 114.63110352 C22.2673697 112.53776512 19.95206275 110.57730252 17.54492188 108.63110352 Z " fill="#000000" transform="translate(148.455078125,111.368896484375)"/>
</svg>
